<?xml version="1.0" encoding="UTF-8"?>
<svg width="506px" height="104px" viewBox="0 0 506 104" version="1.1" xmlns="http://www.w3.org/2000/svg" xmlns:xlink="http://www.w3.org/1999/xlink">
    <!-- Generator: Sketch 44.1 (41455) - http://www.bohemiancoding.com/sketch -->
    <title>Familiehotel Adler</title>
    <desc>Created with Sketch.</desc>
    <defs></defs>
    <g id="Page-1" stroke="none" stroke-width="1" fill="none" fill-rule="evenodd">
        <g id="Hotel-Adler-Homepage" transform="translate(-392.000000, -333.000000)" fill="#FFFFFF">
            <path d="M399.94,338.88 C400.180001,338.719999 400.459998,338.799998 400.78,339.12 C401.020001,339.360001 401.259999,339.839996 401.5,340.56 C401.740001,341.280004 401.979999,342.319993 402.22,343.68 C404.620012,343.199998 406.739991,342.760002 408.58,342.36 C410.420009,341.959998 412.179992,341.560002 413.86,341.16 C415.540008,340.759998 417.259991,340.340002 419.02,339.9 C420.780009,339.459998 422.819988,339.000002 425.14,338.52 C426.580007,338.359999 427.699996,338.180001 428.5,337.98 C429.300004,337.779999 429.919998,337.620001 430.36,337.5 C430.800002,337.379999 431.119999,337.28 431.32,337.2 C431.520001,337.12 431.739999,337.12 431.98,337.2 C432.140001,337.920004 432.26,338.439998 432.34,338.76 C432.42,339.080002 432.44,339.319999 432.4,339.48 C432.36,339.640001 432.280001,339.799999 432.16,339.96 L431.62,340.68 C430.579995,341.080002 429.08001,341.599997 427.12,342.24 C425.15999,342.880003 423.020012,343.539997 420.7,344.22 C418.379988,344.900003 416.040012,345.579997 413.68,346.26 C411.319988,346.940003 409.18001,347.479998 407.26,347.88 C406.939998,347.96 406.540002,348.079999 406.06,348.24 L404.62,348.72 C404.059997,348.960001 403.460003,349.159999 402.82,349.32 C402.9,350.760007 402.94,351.739997 402.94,352.26 C402.94,352.780003 402.92,353.359997 402.88,354 C402.84,354.640003 402.8,355.619993 402.76,356.94 C402.72,358.260007 402.779999,360.479984 402.94,363.6 C402.86,363.920002 402.84,364.599995 402.88,365.64 C402.92,366.680005 402.98,367.799994 403.06,369 C403.14,370.440007 403.259999,371.999992 403.42,373.68 C404.860007,373.439999 406.239993,373.040003 407.56,372.48 C408.880007,371.919997 410.379992,371.280004 412.06,370.56 C413.740008,369.839996 415.719989,369.060004 418,368.22 C420.280011,367.379996 423.099983,366.560004 426.46,365.76 C426.940002,366.240002 426.860003,366.759997 426.22,367.32 C425.579997,367.880003 424.640006,368.479997 423.4,369.12 C422.159994,369.760003 420.760008,370.439996 419.2,371.16 C417.639992,371.880004 416.180007,372.639996 414.82,373.44 C413.059991,374.160004 411.600006,374.819997 410.44,375.42 C409.279994,376.020003 408.320004,376.539998 407.56,376.98 C406.799996,377.420002 406.140003,377.739999 405.58,377.94 C405.019997,378.140001 404.460003,378.24 403.9,378.24 C403.9,379.040004 403.94,380.47999 404.02,382.56 C404.1,384.64001 404.199999,387.039986 404.32,389.76 C404.440001,392.480014 404.559999,395.379985 404.68,398.46 C404.800001,401.540015 404.939999,404.459986 405.1,407.22 C405.260001,409.980014 405.419999,412.479989 405.58,414.72 C405.740001,416.960011 405.899999,418.599995 406.06,419.64 C405.259996,419.800001 404.400005,419.92 403.48,420 C402.559995,420.08 401.620005,420.12 400.66,420.12 L400.66,412.92 C400.66,407.399972 400.560001,401.980027 400.36,396.66 C400.159999,391.339973 399.860002,385.760029 399.46,379.92 L397.12,380.82 C396.599997,381.020001 396.180002,381.16 395.86,381.24 C395.539998,381.32 395.200002,381.34 394.84,381.3 C394.479998,381.26 393.940004,381.160001 393.22,381 C393.380001,380.359997 393.240002,380.04 392.8,380.04 C392.359998,380.04 392.14,379.800002 392.14,379.32 C392.380001,378.599996 392.779997,378.060002 393.34,377.7 C393.900003,377.339998 394.519997,377.060001 395.2,376.86 C395.880003,376.659999 396.559997,376.440001 397.24,376.2 C397.920003,375.959999 398.499998,375.560003 398.98,375 C398.9,371.959985 398.82,369.360011 398.74,367.2 C398.66,365.039989 398.6,363.100009 398.56,361.38 C398.52,359.659991 398.440001,357.980008 398.32,356.34 C398.199999,354.699992 398.1,352.92001 398.02,351 C397.219996,351.320002 396.500003,351.46 395.86,351.42 C395.219997,351.38 394.700002,351.120002 394.3,350.64 C393.739997,349.999997 393.46,349.280004 393.46,348.48 C393.46,347.679996 393.5,347.160001 393.58,346.92 C393.5,346.84 393.679998,346.680001 394.12,346.44 C394.560002,346.199999 395.019998,345.960001 395.5,345.72 C396.060003,345.399998 396.739996,345.080002 397.54,344.76 C397.46,343.719995 397.499999,342.760004 397.66,341.88 C397.820001,341.159996 398.059998,340.480003 398.38,339.84 C398.700002,339.199997 399.219996,338.88 399.94,338.88 Z M444.22,384.72 C444.14,385.200002 443.960001,386.199992 443.68,387.72 C443.399999,389.240008 443.100002,391.01999 442.78,393.06 C442.459998,395.10001 442.180001,397.239989 441.94,399.48 C441.699999,401.720011 441.56,403.83999 441.52,405.84 C441.48,407.84001 441.599999,409.539993 441.88,410.94 C442.160001,412.340007 442.619997,413.199998 443.26,413.52 C445.100009,414.400004 446.97999,414.100007 448.9,412.62 C450.82001,411.139993 453.059987,408.880015 455.62,405.84 C455.860001,405.84 455.880001,406.159997 455.68,406.8 C455.479999,407.440003 455.160002,408.139996 454.72,408.9 L453.4,411.18 C452.959998,411.940004 452.620001,412.439999 452.38,412.68 C451.739997,413.480004 450.820006,414.379995 449.62,415.38 C448.419994,416.380005 447.140007,417.179997 445.78,417.78 C444.419993,418.380003 443.120006,418.64 441.88,418.56 C440.639994,418.48 439.620004,417.760007 438.82,416.4 C438.419998,415.439995 438.18,414.260007 438.1,412.86 C438.02,411.459993 438.02,410.040007 438.1,408.6 C438.18,407.159993 438.299999,405.840006 438.46,404.64 C438.620001,403.439994 438.74,402.560003 438.82,402 C437.139992,405.120016 435.220011,408.079986 433.06,410.88 C430.899989,413.680014 428.78001,415.879992 426.7,417.48 C424.61999,419.080008 422.700009,419.939999 420.94,420.06 C419.179991,420.180001 417.820005,419.160011 416.86,417 C416.299997,414.91999 416.299997,412.580013 416.86,409.98 C417.420003,407.379987 418.259994,405.04001 419.38,402.96 C421.060008,400.079986 422.819991,397.440012 424.66,395.04 C426.500009,392.639988 428.45999,390.600008 430.54,388.92 C432.62001,387.239992 434.799989,386.020004 437.08,385.26 C439.360011,384.499996 441.739988,384.319998 444.22,384.72 Z M421.66,415.2 C422.460004,415.360001 423.739991,414.760007 425.5,413.4 C427.260009,412.039993 429.09999,410.140012 431.02,407.7 C432.94001,405.259988 434.679992,402.420016 436.24,399.18 C437.800008,395.939984 438.819998,392.520018 439.3,388.92 L437.92,388.92 C437.319997,388.92 436.620004,389.159998 435.82,389.64 C432.779985,391.64001 430.180011,393.979987 428.02,396.66 C425.859989,399.340013 424.180006,401.939987 422.98,404.46 C421.779994,406.980013 421.060001,409.23999 420.82,411.24 C420.579999,413.24001 420.859996,414.559997 421.66,415.2 Z M455.02,379.56 C455.02,378.839996 455.219998,378.420001 455.62,378.3 C456.020002,378.179999 456.439998,378.199999 456.88,378.36 C457.320002,378.520001 457.759998,378.779998 458.2,379.14 C458.640002,379.500002 458.939999,379.759999 459.1,379.92 C459.260001,382.00001 459.180002,384.839982 458.86,388.44 C458.539998,392.040018 458.38,396.519973 458.38,401.88 C458.700002,400.599994 459.179997,399.080009 459.82,397.32 C460.460003,395.559991 461.199996,393.780009 462.04,391.98 C462.880004,390.179991 463.799995,388.500008 464.8,386.94 C465.800005,385.379992 466.779995,384.140005 467.74,383.22 C468.700005,382.299995 469.619996,381.84 470.5,381.84 C471.380004,381.84 472.179996,382.519993 472.9,383.88 C473.060001,384.280002 473.199999,385.099994 473.32,386.34 C473.440001,387.580006 473.52,389.079991 473.56,390.84 C473.6,392.600009 473.66,394.559989 473.74,396.72 C473.82,398.880011 473.939999,401.079989 474.1,403.32 C474.820004,401.559991 475.639995,399.620011 476.56,397.5 C477.480005,395.379989 478.459995,393.460009 479.5,391.74 C480.540005,390.019991 481.659994,388.680005 482.86,387.72 C484.060006,386.759995 485.339993,386.559997 486.7,387.12 C487.340003,387.360001 487.779999,388.099994 488.02,389.34 C488.260001,390.580006 488.459999,392.039992 488.62,393.72 C488.780001,395.400008 488.959999,397.179991 489.16,399.06 C489.360001,400.940009 489.739997,402.639992 490.3,404.16 C490.860003,405.680008 491.659995,406.899995 492.7,407.82 C493.740005,408.740005 495.139991,409.080001 496.9,408.84 C497.860005,408.84 498.559998,408.86 499,408.9 C499.440002,408.94 499.759999,409 499.96,409.08 C500.160001,409.16 500.24,409.279999 500.2,409.44 C500.16,409.600001 500.14,409.839998 500.14,410.16 C497.179985,411.680008 494.760009,412.180003 492.88,411.66 C490.999991,411.139997 489.520005,410.020009 488.44,408.3 C487.359995,406.579991 486.600002,404.500012 486.16,402.06 C485.719998,399.619988 485.420001,397.200012 485.26,394.8 C485.099999,393.759995 484.760003,393.319999 484.24,393.48 C483.719997,393.640001 483.080004,394.239995 482.32,395.28 C481.559996,396.320005 480.740004,397.619992 479.86,399.18 C478.979996,400.740008 478.140004,402.399991 477.34,404.16 C476.539996,405.920009 475.840003,407.619992 475.24,409.26 C474.639997,410.900008 474.180002,412.239995 473.86,413.28 C473.459998,414.000004 472.820004,414.200002 471.94,413.88 C471.059996,413.559998 470.500001,412.960004 470.26,412.08 C469.939998,410.799994 469.76,409.220009 469.72,407.34 C469.68,405.459991 469.68,403.56001 469.72,401.64 C469.76,399.71999 469.82,397.860009 469.9,396.06 C469.98,394.259991 469.98,392.720006 469.9,391.44 C469.82,390.159994 469.660001,389.280002 469.42,388.8 C469.179999,388.319998 468.740003,388.439996 468.1,389.16 C466.739993,391.24001 465.480006,393.599987 464.32,396.24 C463.159994,398.880013 462.140004,401.619986 461.26,404.46 C460.379996,407.300014 459.640003,410.139986 459.04,412.98 C458.439997,415.820014 458.060001,418.399988 457.9,420.72 C456.539993,421.040002 455.580003,420.860003 455.02,420.18 C454.459997,419.499997 453.980002,418.800004 453.58,418.08 C453.740001,417.039995 453.879999,415.020015 454,412.02 C454.120001,409.019985 454.239999,405.600019 454.36,401.76 C454.480001,397.919981 454.599999,394.00002 454.72,390 C454.840001,385.99998 454.94,382.520015 455.02,379.56 Z M505.54,367.2 C506.340004,367.039999 506.819999,367.519994 506.98,368.64 C507.140001,369.760006 506.980002,370.599997 506.5,371.16 C505.619996,371.880004 505.060001,372.499997 504.82,373.02 C504.579999,373.540003 504.020004,373.879999 503.14,374.04 C502.659998,373.96 502.240002,373.94 501.88,373.98 C501.519998,374.02 501.220001,373.360007 500.98,372 C501.300002,371.119996 501.799997,370.240004 502.48,369.36 C503.160003,368.479996 504.179993,367.760003 505.54,367.2 Z M505.9,382.8 C506.300002,386.640019 506.579999,390.859977 506.74,395.46 C506.900001,400.060023 507.179998,404.879975 507.58,409.92 C507.900002,412.480013 508.219998,414.479993 508.54,415.92 C508.860002,417.360007 509.099999,418.719994 509.26,420 C507.979994,420.240001 506.980004,420.220001 506.26,419.94 C505.539996,419.659999 504.860003,419.320002 504.22,418.92 C504.059999,417.639994 503.880001,415.520015 503.68,412.56 C503.479999,409.599985 503.280001,406.380017 503.08,402.9 C502.879999,399.419983 502.680001,396.040016 502.48,392.76 C502.279999,389.479984 502.100001,386.88001 501.94,384.96 C502.260002,384.799999 502.519999,384.560002 502.72,384.24 C502.920001,383.919998 503.139999,383.640001 503.38,383.4 C503.620001,383.159999 503.939998,382.960001 504.34,382.8 C504.740002,382.639999 505.259997,382.639999 505.9,382.8 Z M522.46,395.16 C522.46,395.400001 522.579999,396.51999 522.82,398.52 C523.060001,400.52001 523.339998,402.959986 523.66,405.84 C523.980002,408.720014 524.359998,411.819983 524.8,415.14 C525.240002,418.460017 525.639998,421.619985 526,424.62 C526.360002,427.620015 526.699998,430.259989 527.02,432.54 C527.340002,434.820011 527.54,436.279997 527.62,436.92 C527.139998,436.84 526.740002,436.76 526.42,436.68 C526.099998,436.6 525.780002,436.400002 525.46,436.08 C525.139998,435.759998 524.760002,435.300003 524.32,434.7 C523.879998,434.099997 523.260004,433.240006 522.46,432.12 C521.419995,424.759963 520.600003,418.340027 520,412.86 C519.399997,407.379973 518.900002,402.920017 518.5,399.48 C517.059993,401.40001 516.020003,402.679997 515.38,403.32 C514.739997,403.960003 514.340001,404.28 514.18,404.28 C513.939999,404.28 513.899999,403.920004 514.06,403.2 L514.3,402 C514.38,401.599998 514.46,401.240002 514.54,400.92 C514.62,400.599998 514.739999,400.320001 514.9,400.08 C515.460003,399.279996 515.959998,398.480004 516.4,397.68 C516.840002,396.879996 517.179999,396.160003 517.42,395.52 C517.740002,394.719996 517.979999,393.960004 518.14,393.24 C518.06,392.359996 518,391.600003 517.96,390.96 C517.92,390.319997 517.9,389.660003 517.9,388.98 C517.9,388.299997 517.88,387.600004 517.84,386.88 C517.8,386.159996 517.78,385.240006 517.78,384.12 L517.78,372.3 C517.78,369.699987 517.82,366.960014 517.9,364.08 C517.98,361.199986 518.079999,358.460013 518.2,355.86 C518.320001,353.259987 518.479999,350.900011 518.68,348.78 C518.880001,346.659989 519.099999,345.040006 519.34,343.92 C519.900003,341.599988 520.759994,339.820006 521.92,338.58 C523.080006,337.339994 524.299994,336.620001 525.58,336.42 C526.860006,336.219999 528.119994,336.539996 529.36,337.38 C530.600006,338.220004 531.539997,339.519991 532.18,341.28 C532.900004,343.040009 533.26,345.319986 533.26,348.12 C533.26,350.920014 533.020002,353.979983 532.54,357.3 C532.059998,360.620017 531.400004,364.079982 530.56,367.68 C529.719996,371.280018 528.820005,374.779983 527.86,378.18 C526.899995,381.580017 525.940005,384.759985 524.98,387.72 C524.019995,390.680015 523.180004,393.15999 522.46,395.16 Z M521.5,388.32 C523.50001,382.479971 525.139994,376.740028 526.42,371.1 C527.700006,365.459972 528.639997,360.400022 529.24,355.92 C529.840003,351.439978 530.040001,347.820014 529.84,345.06 C529.639999,342.299986 529.060005,340.88 528.1,340.8 C526.579992,340.239997 525.380004,340.759992 524.5,342.36 C523.619996,343.960008 522.920003,346.199986 522.4,349.08 C521.879997,351.960014 521.540001,355.259981 521.38,358.98 C521.219999,362.700019 521.16,366.399982 521.2,370.08 C521.24,373.760018 521.3,377.239984 521.38,380.52 C521.46,383.800016 521.5,386.39999 521.5,388.32 Z M540.58,367.2 C541.380004,367.039999 541.859999,367.519994 542.02,368.64 C542.180001,369.760006 542.020002,370.599997 541.54,371.16 C540.659996,371.880004 540.100001,372.499997 539.86,373.02 C539.619999,373.540003 539.060004,373.879999 538.18,374.04 C537.699998,373.96 537.280002,373.94 536.92,373.98 C536.559998,374.02 536.260001,373.360007 536.02,372 C536.340002,371.119996 536.839997,370.240004 537.52,369.36 C538.200003,368.479996 539.219993,367.760003 540.58,367.2 Z M540.94,382.8 C541.340002,386.640019 541.619999,390.859977 541.78,395.46 C541.940001,400.060023 542.219998,404.879975 542.62,409.92 C542.940002,412.480013 543.259998,414.479993 543.58,415.92 C543.900002,417.360007 544.139999,418.719994 544.3,420 C543.019994,420.240001 542.020004,420.220001 541.3,419.94 C540.579996,419.659999 539.900003,419.320002 539.26,418.92 C539.099999,417.639994 538.920001,415.520015 538.72,412.56 C538.519999,409.599985 538.320001,406.380017 538.12,402.9 C537.919999,399.419983 537.720001,396.040016 537.52,392.76 C537.319999,389.479984 537.140001,386.88001 536.98,384.96 C537.300002,384.799999 537.559999,384.560002 537.76,384.24 C537.960001,383.919998 538.179999,383.640001 538.42,383.4 C538.660001,383.159999 538.979998,382.960001 539.38,382.8 C539.780002,382.639999 540.299997,382.639999 540.94,382.8 Z M559.66,386.04 C559.900001,385.96 560.579994,385.740002 561.7,385.38 C562.820006,385.019998 563.739996,384.959999 564.46,385.2 C566.780012,385.12 568.559994,385.719994 569.8,387 C571.040006,388.280006 571.140005,390.759982 570.1,394.44 C568.579992,398.52002 566.560013,401.919986 564.04,404.64 C561.519987,407.360014 558.540017,409.959988 555.1,412.44 C555.900004,414.52001 557.099992,415.679999 558.7,415.92 C560.300008,416.160001 561.979991,415.900004 563.74,415.14 C565.500009,414.379996 567.219992,413.360006 568.9,412.08 C570.580008,410.799994 571.939995,409.680005 572.98,408.72 C574.660008,407.279993 575.999995,406.060005 577,405.06 C578.000005,404.059995 579.059994,402.840007 580.18,401.4 C580.420001,401.239999 580.56,401.259999 580.6,401.46 C580.64,401.660001 580.62,401.959998 580.54,402.36 C580.46,402.760002 580.340001,403.319996 580.18,404.04 C579.939999,404.600003 579.700001,405.099998 579.46,405.54 C579.219999,405.980002 578.880002,406.459997 578.44,406.98 C577.999998,407.500003 577.420004,408.119996 576.7,408.84 C575.979996,409.560004 575.100005,410.519994 574.06,411.72 C572.859994,412.840006 571.700006,413.939995 570.58,415.02 C569.459994,416.100005 568.280006,417.039996 567.04,417.84 C565.799994,418.640004 564.440007,419.199998 562.96,419.52 C561.479993,419.840002 559.78001,419.840002 557.86,419.52 C556.259992,418.959997 554.980005,418.360003 554.02,417.72 C553.059995,417.079997 552.320003,416.420003 551.8,415.74 C551.279997,415.059997 550.900001,414.440003 550.66,413.88 C550.419999,413.319997 550.26,412.840002 550.18,412.44 C549.779998,410.839992 549.62,408.680014 549.7,405.96 C549.78,403.239986 550.579992,399.720022 552.1,395.4 C553.140005,393.159989 554.259994,391.260008 555.46,389.7 C556.660006,388.139992 558.059992,386.920004 559.66,386.04 Z M554.38,407.28 C555.420005,406.719997 556.639993,405.940005 558.04,404.94 C559.440007,403.939995 560.759994,402.780007 562,401.46 C563.240006,400.139993 564.319995,398.680008 565.24,397.08 C566.160005,395.479992 566.66,393.800009 566.74,392.04 C566.980001,390.839994 566.940002,390.000002 566.62,389.52 C566.459999,389.279999 566.300001,389.16 566.14,389.16 C564.779993,388.519997 563.420007,388.719995 562.06,389.76 C560.699993,390.800005 559.460006,392.27999 558.34,394.2 C557.219994,396.12001 556.280004,398.259988 555.52,400.62 C554.759996,402.980012 554.38,405.19999 554.38,407.28 Z M583.54,333.6 C583.62,333.840001 583.7,334.859991 583.78,336.66 C583.86,338.460009 583.92,340.759986 583.96,343.56 C584,346.360014 584.02,349.539982 584.02,353.1 C584.02,356.660018 584.04,360.319981 584.08,364.08 C584.12,367.840019 584.14,371.559982 584.14,375.24 L584.14,397.44 C585.020004,393.51998 586.279992,390.280013 587.92,387.72 C589.560008,385.159987 591.059993,383.800001 592.42,383.64 C594.020008,383.319998 595.239996,383.659995 596.08,384.66 C596.920004,385.660005 597.599997,387.019991 598.12,388.74 C598.640003,390.460009 599.159997,392.379989 599.68,394.5 C600.200003,396.620011 600.899996,398.63999 601.78,400.56 C602.660004,402.48001 603.859992,404.179993 605.38,405.66 C606.900008,407.140007 608.979987,408.039998 611.62,408.36 C609.53999,410.120009 607.680008,410.920001 606.04,410.76 C604.399992,410.599999 602.940006,409.880006 601.66,408.6 C600.379994,407.319994 599.260005,405.68001 598.3,403.68 C597.339995,401.67999 596.540003,399.72001 595.9,397.8 C595.259997,395.87999 594.740002,394.200007 594.34,392.76 C593.939998,391.319993 593.660001,390.480001 593.5,390.24 C593.019998,389.599997 592.500003,389.559997 591.94,390.12 C591.379997,390.680003 590.800003,391.559994 590.2,392.76 C589.599997,393.960006 589.040003,395.339992 588.52,396.9 C587.999997,398.460008 587.540002,399.939993 587.14,401.34 C586.739998,402.740007 586.420001,403.919995 586.18,404.88 C585.939999,405.840005 585.82,406.28 585.82,406.2 C585.579999,407.240005 585.380001,408.599992 585.22,410.28 C585.059999,411.960008 584.96,413.619992 584.92,415.26 C584.88,416.900008 584.88,418.379993 584.92,419.7 C584.96,421.020007 585.059999,421.839998 585.22,422.16 C584.659997,422.16 583.860005,421.980002 582.82,421.62 C581.779995,421.259998 580.980003,421.08 580.42,421.08 L580.42,398.7 C580.42,393.939976 580.4,388.840027 580.36,383.4 C580.32,377.959973 580.240001,372.460028 580.12,366.9 C579.999999,361.339972 579.860001,355.820027 579.7,350.34 C579.539999,344.859973 579.300002,339.680024 578.98,334.8 C578.98,334.639999 579.459995,334.340002 580.42,333.9 C581.380005,333.459998 582.419994,333.359999 583.54,333.6 Z M611.38,384 C612.900008,384.08 614.579991,384.299998 616.42,384.66 C618.260009,385.020002 620.059991,385.499997 621.82,386.1 C623.580009,386.700003 625.199993,387.379996 626.68,388.14 C628.160007,388.900004 629.379995,389.759995 630.34,390.72 C631.300005,391.600004 631.859999,392.939991 632.02,394.74 C632.180001,396.540009 632.060002,398.519989 631.66,400.68 C631.259998,402.840011 630.640004,405.059989 629.8,407.34 C628.959996,409.620011 628.020005,411.679991 626.98,413.52 C625.939995,415.360009 624.820006,416.879994 623.62,418.08 C622.419994,419.280006 621.300005,419.88 620.26,419.88 C618.499991,419.88 617.020006,419.460004 615.82,418.62 C614.619994,417.779996 613.660004,416.760006 612.94,415.56 C612.219996,414.359994 611.680002,413.100007 611.32,411.78 C610.959998,410.459993 610.74,409.320005 610.66,408.36 C610.419999,404.119979 610.379999,400.360016 610.54,397.08 C610.700001,393.799984 610.979998,391.080011 611.38,388.92 C611.139999,388.519998 610.900001,388.160002 610.66,387.84 C610.419999,387.519998 610.180001,387.220001 609.94,386.94 C609.699999,386.659999 609.420002,386.400001 609.1,386.16 C609.420002,385.999999 609.739998,385.760002 610.06,385.44 C610.700003,384.959998 611.139999,384.480002 611.38,384 Z M615.7,412.56 C615.940001,412.880002 616.259998,413.219998 616.66,413.58 C617.060002,413.940002 617.559997,414.219999 618.16,414.42 C618.760003,414.620001 619.379997,414.640001 620.02,414.48 C620.660003,414.319999 621.339996,413.880004 622.06,413.16 C623.98001,411.15999 625.419995,409.100011 626.38,406.98 C627.340005,404.859989 627.959999,402.860009 628.24,400.98 C628.520001,399.099991 628.480002,397.440007 628.12,396 C627.759998,394.559993 627.180004,393.520003 626.38,392.88 C625.739997,392.479998 625.200002,392.140001 624.76,391.86 C624.319998,391.579999 623.760003,391.320001 623.08,391.08 C622.399997,390.839999 621.540005,390.580001 620.5,390.3 C619.459995,390.019999 618.100008,389.640002 616.42,389.16 C615.619996,391.720013 615.060002,394.279987 614.74,396.84 C614.419998,399.400013 614.28,401.739989 614.32,403.86 C614.36,405.980011 614.519999,407.819992 614.8,409.38 C615.080001,410.940008 615.379998,411.999997 615.7,412.56 Z M652.42,384.24 C655.860017,383.999999 659.239983,383.740001 662.56,383.46 C665.880017,383.179999 669.339982,382.880002 672.94,382.56 C673.740004,382.64 674.259999,383.059996 674.5,383.82 C674.740001,384.580004 674.420004,385.039999 673.54,385.2 C670.579985,385.520002 667.180019,385.959997 663.34,386.52 C659.499981,387.080003 655.860017,387.799996 652.42,388.68 C652.580001,391.160012 652.66,393.699987 652.66,396.3 C652.66,398.900013 652.719999,401.459987 652.84,403.98 C652.960001,406.500013 653.199998,408.939988 653.56,411.3 C653.920002,413.660012 654.499996,415.83999 655.3,417.84 C656.420006,419.200007 657.539994,419.999999 658.66,420.24 C659.780006,420.480001 660.839995,420.420002 661.84,420.06 C662.840005,419.699998 663.759996,419.140004 664.6,418.38 C665.440004,417.619996 666.179997,416.880004 666.82,416.16 C667.380003,415.599997 667.839998,415.599997 668.2,416.16 C668.560002,416.720003 668.220005,417.559994 667.18,418.68 C666.699998,419.240003 666.100004,419.839997 665.38,420.48 C664.659996,421.120003 663.800005,421.659998 662.8,422.1 C661.799995,422.540002 660.680006,422.819999 659.44,422.94 C658.199994,423.060001 656.860007,422.920002 655.42,422.52 C653.579991,422.039998 652.220004,420.560012 651.34,418.08 C650.459996,415.599988 649.800002,412.700017 649.36,409.38 C648.919998,406.059983 648.620001,402.600018 648.46,399 C648.299999,395.399982 648.100001,392.160014 647.86,389.28 C644.339982,389.600002 641.760008,389.879999 640.12,390.12 C638.479992,390.360001 637.300004,390.52 636.58,390.6 C635.859996,390.68 635.380001,390.640001 635.14,390.48 C634.899999,390.319999 634.460003,389.960003 633.82,389.4 C633.9,388.999998 633.92,388.620002 633.88,388.26 C633.84,387.899998 633.84,387.600001 633.88,387.36 C633.92,387.119999 634.079999,386.880001 634.36,386.64 C634.640001,386.399999 635.179996,386.200001 635.98,386.04 C637.180006,385.719998 638.919989,385.54 641.2,385.5 C643.480011,385.46 645.699989,385.280002 647.86,384.96 C647.78,382.399987 647.7,380.400007 647.62,378.96 C647.54,377.519993 647.46,376.260005 647.38,375.18 C647.3,374.099995 647.24,373.040005 647.2,372 C647.16,370.959995 647.14,369.600008 647.14,367.92 C647.14,367.519998 647.359998,367.220001 647.8,367.02 C648.240002,366.819999 648.739997,366.7 649.3,366.66 C649.860003,366.62 650.379998,366.699999 650.86,366.9 C651.340002,367.100001 651.659999,367.399998 651.82,367.8 C652.060001,368.520004 652.22,369.579993 652.3,370.98 C652.38,372.380007 652.44,373.859992 652.48,375.42 C652.52,376.980008 652.54,378.559992 652.54,380.16 C652.54,381.760008 652.5,383.119994 652.42,384.24 Z M677.74,386.04 C677.980001,385.96 678.659994,385.740002 679.78,385.38 C680.900006,385.019998 681.819996,384.959999 682.54,385.2 C684.860012,385.12 686.639994,385.719994 687.88,387 C689.120006,388.280006 689.220005,390.759982 688.18,394.44 C686.659992,398.52002 684.640013,401.919986 682.12,404.64 C679.599987,407.360014 676.620017,409.959988 673.18,412.44 C673.980004,414.52001 675.179992,415.679999 676.78,415.92 C678.380008,416.160001 680.059991,415.900004 681.82,415.14 C683.580009,414.379996 685.299992,413.360006 686.98,412.08 C688.660008,410.799994 690.019995,409.680005 691.06,408.72 C692.740008,407.279993 694.079995,406.060005 695.08,405.06 C696.080005,404.059995 697.139994,402.840007 698.26,401.4 C698.500001,401.239999 698.64,401.259999 698.68,401.46 C698.72,401.660001 698.7,401.959998 698.62,402.36 C698.54,402.760002 698.420001,403.319996 698.26,404.04 C698.019999,404.600003 697.780001,405.099998 697.54,405.54 C697.299999,405.980002 696.960002,406.459997 696.52,406.98 C696.079998,407.500003 695.500004,408.119996 694.78,408.84 C694.059996,409.560004 693.180005,410.519994 692.14,411.72 C690.939994,412.840006 689.780006,413.939995 688.66,415.02 C687.539994,416.100005 686.360006,417.039996 685.12,417.84 C683.879994,418.640004 682.520007,419.199998 681.04,419.52 C679.559993,419.840002 677.86001,419.840002 675.94,419.52 C674.339992,418.959997 673.060005,418.360003 672.1,417.72 C671.139995,417.079997 670.400003,416.420003 669.88,415.74 C669.359997,415.059997 668.980001,414.440003 668.74,413.88 C668.499999,413.319997 668.34,412.840002 668.26,412.44 C667.859998,410.839992 667.7,408.680014 667.78,405.96 C667.86,403.239986 668.659992,399.720022 670.18,395.4 C671.220005,393.159989 672.339994,391.260008 673.54,389.7 C674.740006,388.139992 676.139992,386.920004 677.74,386.04 Z M672.46,407.28 C673.500005,406.719997 674.719993,405.940005 676.12,404.94 C677.520007,403.939995 678.839994,402.780007 680.08,401.46 C681.320006,400.139993 682.399995,398.680008 683.32,397.08 C684.240005,395.479992 684.74,393.800009 684.82,392.04 C685.060001,390.839994 685.020002,390.000002 684.7,389.52 C684.539999,389.279999 684.380001,389.16 684.22,389.16 C682.859993,388.519997 681.500007,388.719995 680.14,389.76 C678.779993,390.800005 677.540006,392.27999 676.42,394.2 C675.299994,396.12001 674.360004,398.259988 673.6,400.62 C672.839996,402.980012 672.46,405.19999 672.46,407.28 Z M705.82,395.16 C705.82,395.400001 705.939999,396.51999 706.18,398.52 C706.420001,400.52001 706.699998,402.959986 707.02,405.84 C707.340002,408.720014 707.719998,411.819983 708.16,415.14 C708.600002,418.460017 708.999998,421.619985 709.36,424.62 C709.720002,427.620015 710.059998,430.259989 710.38,432.54 C710.700002,434.820011 710.9,436.279997 710.98,436.92 C710.499998,436.84 710.100002,436.76 709.78,436.68 C709.459998,436.6 709.140002,436.400002 708.82,436.08 C708.499998,435.759998 708.120002,435.300003 707.68,434.7 C707.239998,434.099997 706.620004,433.240006 705.82,432.12 C704.779995,424.759963 703.960003,418.340027 703.36,412.86 C702.759997,407.379973 702.260002,402.920017 701.86,399.48 C700.419993,401.40001 699.380003,402.679997 698.74,403.32 C698.099997,403.960003 697.700001,404.28 697.54,404.28 C697.299999,404.28 697.259999,403.920004 697.42,403.2 L697.66,402 C697.74,401.599998 697.82,401.240002 697.9,400.92 C697.98,400.599998 698.099999,400.320001 698.26,400.08 C698.820003,399.279996 699.319998,398.480004 699.76,397.68 C700.200002,396.879996 700.539999,396.160003 700.78,395.52 C701.100002,394.719996 701.339999,393.960004 701.5,393.24 C701.42,392.359996 701.36,391.600003 701.32,390.96 C701.28,390.319997 701.26,389.660003 701.26,388.98 C701.26,388.299997 701.24,387.600004 701.2,386.88 C701.16,386.159996 701.14,385.240006 701.14,384.12 L701.14,372.3 C701.14,369.699987 701.18,366.960014 701.26,364.08 C701.34,361.199986 701.439999,358.460013 701.56,355.86 C701.680001,353.259987 701.839999,350.900011 702.04,348.78 C702.240001,346.659989 702.459999,345.040006 702.7,343.92 C703.260003,341.599988 704.119994,339.820006 705.28,338.58 C706.440006,337.339994 707.659994,336.620001 708.94,336.42 C710.220006,336.219999 711.479994,336.539996 712.72,337.38 C713.960006,338.220004 714.899997,339.519991 715.54,341.28 C716.260004,343.040009 716.62,345.319986 716.62,348.12 C716.62,350.920014 716.380002,353.979983 715.9,357.3 C715.419998,360.620017 714.760004,364.079982 713.92,367.68 C713.079996,371.280018 712.180005,374.779983 711.22,378.18 C710.259995,381.580017 709.300005,384.759985 708.34,387.72 C707.379995,390.680015 706.540004,393.15999 705.82,395.16 Z M704.86,388.32 C706.86001,382.479971 708.499994,376.740028 709.78,371.1 C711.060006,365.459972 711.999997,360.400022 712.6,355.92 C713.200003,351.439978 713.400001,347.820014 713.2,345.06 C712.999999,342.299986 712.420005,340.88 711.46,340.8 C709.939992,340.239997 708.740004,340.759992 707.86,342.36 C706.979996,343.960008 706.280003,346.199986 705.76,349.08 C705.239997,351.960014 704.900001,355.259981 704.74,358.98 C704.579999,362.700019 704.52,366.399982 704.56,370.08 C704.6,373.760018 704.66,377.239984 704.74,380.52 C704.82,383.800016 704.86,386.39999 704.86,388.32 Z M742.9,397.2 C741.779994,397.2 740.520007,397.259999 739.12,397.38 C737.719993,397.500001 736.380006,397.56 735.1,397.56 C733.819994,397.56 732.680005,397.460001 731.68,397.26 C730.679995,397.059999 730.060001,396.640003 729.82,396 C729.339998,395.599998 729.339998,395.140003 729.82,394.62 C730.300002,394.099997 730.739998,393.640002 731.14,393.24 C732.660008,393.079999 733.979994,392.96 735.1,392.88 C736.220006,392.8 737.259995,392.700001 738.22,392.58 C739.180005,392.459999 740.099996,392.340001 740.98,392.22 C741.860004,392.099999 742.779995,391.960001 743.74,391.8 C744.940006,387.319978 746.059995,383.04002 747.1,378.96 C748.140005,374.87998 749.139995,370.84002 750.1,366.84 C751.060005,362.83998 751.999995,358.80002 752.92,354.72 C753.840005,350.63998 754.819995,346.360022 755.86,341.88 C756.580004,340.839995 757.179998,340.3 757.66,340.26 C758.140002,340.22 758.939994,340.24 760.06,340.32 C760.540002,342.880013 760.899999,345.039991 761.14,346.8 C761.380001,348.560009 761.599999,350.339991 761.8,352.14 C762.000001,353.940009 762.239999,355.939989 762.52,358.14 C762.800001,360.340011 763.179998,363.119983 763.66,366.48 C763.980002,369.920017 764.419997,373.299983 764.98,376.62 C765.540003,379.940017 766.019998,383.359982 766.42,386.88 C768.50001,386.559998 770.49999,386.220002 772.42,385.86 C774.34001,385.499998 776.039993,385.180001 777.52,384.9 C779.000007,384.619999 780.199995,384.400001 781.12,384.24 C782.040005,384.079999 782.5,384.04 782.5,384.12 C782.740001,384.840004 782.360005,385.539997 781.36,386.22 C780.359995,386.900003 779.060008,387.579997 777.46,388.26 C775.859992,388.940003 774.140009,389.579997 772.3,390.18 C770.459991,390.780003 768.820007,391.319998 767.38,391.8 C767.540001,393.320008 767.819998,395.219989 768.22,397.5 C768.620002,399.780011 769.039998,402.199987 769.48,404.76 C769.920002,407.320013 770.379998,409.899987 770.86,412.5 C771.340002,415.100013 771.759998,417.459989 772.12,419.58 C772.480002,421.700011 772.739999,423.459993 772.9,424.86 C773.060001,426.260007 773.060001,427.039999 772.9,427.2 C771.539993,427.360001 770.560003,427.220002 769.96,426.78 C769.359997,426.339998 768.620004,425.960002 767.74,425.64 C767.099997,420.359974 766.300005,414.980027 765.34,409.5 C764.379995,404.019973 763.620003,398.560027 763.06,393.12 C761.219991,393.520002 758.880014,394.059997 756.04,394.74 C753.199986,395.420003 750.260015,395.999998 747.22,396.48 C746.739998,398.240009 746.300002,400.199989 745.9,402.36 C745.499998,404.520011 745.100002,406.57999 744.7,408.54 C744.299998,410.50001 743.960001,412.259992 743.68,413.82 C743.399999,415.380008 743.140001,416.399998 742.9,416.88 C742.499998,417.280002 741.800005,417.539999 740.8,417.66 C739.799995,417.780001 738.980003,417.520003 738.34,416.88 C738.34,416.399998 738.519998,415.300009 738.88,413.58 C739.240002,411.859991 739.659998,409.96001 740.14,407.88 C740.620002,405.79999 741.119997,403.78001 741.64,401.82 C742.160003,399.85999 742.579998,398.320006 742.9,397.2 Z M748.66,391.32 C749.860006,391.079999 751.179993,390.820001 752.62,390.54 C754.060007,390.259999 755.399994,389.960002 756.64,389.64 C757.880006,389.319998 758.959995,389.060001 759.88,388.86 C760.800005,388.659999 761.339999,388.52 761.5,388.44 C761.339999,386.679991 761.200001,385.220006 761.08,384.06 C760.959999,382.899994 760.840001,381.680006 760.72,380.4 C760.599999,379.119994 760.460001,377.620009 760.3,375.9 C760.139999,374.179991 759.900002,371.840015 759.58,368.88 C758.939997,363.839975 758.480001,360.080012 758.2,357.6 C757.919999,355.119988 757.660001,354.319996 757.42,355.2 C756.299994,359.520022 755.320004,363.259984 754.48,366.42 C753.639996,369.580016 752.880003,372.499987 752.2,375.18 C751.519997,377.860013 750.900003,380.479987 750.34,383.04 C749.779997,385.600013 749.220003,388.359985 748.66,391.32 Z M822.22,356.88 C821.979999,358.320007 821.700002,359.839992 821.38,361.44 C821.059998,363.040008 820.720002,364.559993 820.36,366 C819.999998,367.440007 819.700001,368.679995 819.46,369.72 C819.219999,370.760005 819.06,371.399999 818.98,371.64 C818.499998,373.000007 817.860004,374.759989 817.06,376.92 C816.259996,379.080011 815.320005,381.339988 814.24,383.7 C813.159995,386.060012 811.940007,388.419988 810.58,390.78 C809.219993,393.140012 807.820007,395.159992 806.38,396.84 C806.38,398.040006 806.519999,400.059986 806.8,402.9 C807.080001,405.740014 807.419998,408.799984 807.82,412.08 C808.220002,415.360016 808.599998,418.579984 808.96,421.74 C809.320002,424.900016 809.54,427.359991 809.62,429.12 C809.219998,429.520002 808.860002,429.440003 808.54,428.88 C808.219998,428.319997 807.740003,427.360007 807.1,426 C806.619998,423.91999 806.240001,422.000009 805.96,420.24 C805.679999,418.479991 805.420001,416.700009 805.18,414.9 C804.939999,413.099991 804.680001,411.20001 804.4,409.2 C804.119999,407.19999 803.700003,404.920013 803.14,402.36 C801.619992,404.28001 799.800011,406.459988 797.68,408.9 C795.559989,411.340012 793.360011,413.499991 791.08,415.38 C788.799989,417.260009 786.560011,418.579996 784.36,419.34 C782.159989,420.100004 780.260008,419.760007 778.66,418.32 C777.699995,417.039994 777.279999,415.540009 777.4,413.82 C777.520001,412.099991 777.999996,410.340009 778.84,408.54 C779.680004,406.739991 780.759993,404.960009 782.08,403.2 C783.400007,401.439991 784.739993,399.800008 786.1,398.28 C787.460007,396.759992 788.739994,395.440006 789.94,394.32 C791.140006,393.199994 792.019997,392.400002 792.58,391.92 C793.700006,391.199996 794.639996,390.620002 795.4,390.18 C796.160004,389.739998 796.839997,389.380001 797.44,389.1 C798.040003,388.819999 798.659997,388.620001 799.3,388.5 C799.940003,388.379999 800.739995,388.36 801.7,388.44 C801.539999,386.599991 801.44,384.400013 801.4,381.84 C801.36,379.279987 801.36,376.700013 801.4,374.1 C801.44,371.499987 801.519999,369.080011 801.64,366.84 C801.760001,364.599989 801.939999,362.880006 802.18,361.68 C802.340001,359.919991 802.719997,358.08001 803.32,356.16 C803.920003,354.23999 804.679995,352.380009 805.6,350.58 C806.520005,348.779991 807.539994,347.180007 808.66,345.78 C809.780006,344.379993 810.999993,343.380003 812.32,342.78 C813.640007,342.179997 814.999993,342.039998 816.4,342.36 C817.800007,342.680002 819.179993,343.679992 820.54,345.36 C821.660006,346.720007 822.22,348.41999 822.22,350.46 L822.22,356.88 Z M806.38,388.92 C807.820007,387.319992 809.019995,385.620009 809.98,383.82 C810.940005,382.019991 812.019994,379.880012 813.22,377.4 C814.260005,375.239989 815.199996,372.480017 816.04,369.12 C816.880004,365.759983 817.459998,362.460016 817.78,359.22 C818.100002,355.979984 818.100002,353.160012 817.78,350.76 C817.459998,348.359988 816.660006,347.080001 815.38,346.92 C814.259994,346.759999 813.220005,347.179995 812.26,348.18 C811.299995,349.180005 810.420004,350.419993 809.62,351.9 C808.819996,353.380007 808.140003,354.959992 807.58,356.64 C807.019997,358.320008 806.620001,359.799994 806.38,361.08 C806.059998,362.680008 805.840001,364.119994 805.72,365.4 C805.599999,366.680006 805.52,368.019993 805.48,369.42 C805.44,370.820007 805.38,372.339992 805.3,373.98 C805.22,375.620008 805.060001,377.639988 804.82,380.04 C804.82,381.240006 804.879999,382.439994 805,383.64 C805.120001,384.840006 805.279999,385.859996 805.48,386.7 C805.680001,387.540004 805.859999,388.179998 806.02,388.62 C806.180001,389.060002 806.3,389.160001 806.38,388.92 Z M788.98,400.08 C786.819989,402.320011 785.240005,404.379991 784.24,406.26 C783.239995,408.140009 782.420003,409.879992 781.78,411.48 L781.78,412.62 C781.78,413.140003 781.839999,413.639998 781.96,414.12 C782.080001,414.600002 782.319998,415.019998 782.68,415.38 C783.040002,415.740002 783.619996,415.840001 784.42,415.68 C785.220004,415.359998 785.879997,415.040002 786.4,414.72 C786.920003,414.399998 787.399998,414.060002 787.84,413.7 C788.280002,413.339998 788.759997,412.960002 789.28,412.56 C789.800003,412.159998 790.459996,411.640003 791.26,411 C792.380006,409.799994 793.759992,408.440008 795.4,406.92 C797.040008,405.399992 798.479994,403.800008 799.72,402.12 C800.960006,400.439992 801.779998,398.720009 802.18,396.96 C802.580002,395.199991 802.060007,393.480008 800.62,391.8 C800.059997,391.8 799.480003,391.879999 798.88,392.04 C798.279997,392.200001 797.540004,392.579997 796.66,393.18 C795.779996,393.780003 794.720006,394.619995 793.48,395.7 C792.239994,396.780005 790.740009,398.239991 788.98,400.08 Z M833.38,395.16 C833.38,395.400001 833.499999,396.51999 833.74,398.52 C833.980001,400.52001 834.259998,402.959986 834.58,405.84 C834.900002,408.720014 835.279998,411.819983 835.72,415.14 C836.160002,418.460017 836.559998,421.619985 836.92,424.62 C837.280002,427.620015 837.619998,430.259989 837.94,432.54 C838.260002,434.820011 838.46,436.279997 838.54,436.92 C838.059998,436.84 837.660002,436.76 837.34,436.68 C837.019998,436.6 836.700002,436.400002 836.38,436.08 C836.059998,435.759998 835.680002,435.300003 835.24,434.7 C834.799998,434.099997 834.180004,433.240006 833.38,432.12 C832.339995,424.759963 831.520003,418.340027 830.92,412.86 C830.319997,407.379973 829.820002,402.920017 829.42,399.48 C827.979993,401.40001 826.940003,402.679997 826.3,403.32 C825.659997,403.960003 825.260001,404.28 825.1,404.28 C824.859999,404.28 824.819999,403.920004 824.98,403.2 L825.22,402 C825.3,401.599998 825.38,401.240002 825.46,400.92 C825.54,400.599998 825.659999,400.320001 825.82,400.08 C826.380003,399.279996 826.879998,398.480004 827.32,397.68 C827.760002,396.879996 828.099999,396.160003 828.34,395.52 C828.660002,394.719996 828.899999,393.960004 829.06,393.24 C828.98,392.359996 828.92,391.600003 828.88,390.96 C828.84,390.319997 828.82,389.660003 828.82,388.98 C828.82,388.299997 828.8,387.600004 828.76,386.88 C828.72,386.159996 828.7,385.240006 828.7,384.12 L828.7,372.3 C828.7,369.699987 828.74,366.960014 828.82,364.08 C828.9,361.199986 828.999999,358.460013 829.12,355.86 C829.240001,353.259987 829.399999,350.900011 829.6,348.78 C829.800001,346.659989 830.019999,345.040006 830.26,343.92 C830.820003,341.599988 831.679994,339.820006 832.84,338.58 C834.000006,337.339994 835.219994,336.620001 836.5,336.42 C837.780006,336.219999 839.039994,336.539996 840.28,337.38 C841.520006,338.220004 842.459997,339.519991 843.1,341.28 C843.820004,343.040009 844.18,345.319986 844.18,348.12 C844.18,350.920014 843.940002,353.979983 843.46,357.3 C842.979998,360.620017 842.320004,364.079982 841.48,367.68 C840.639996,371.280018 839.740005,374.779983 838.78,378.18 C837.819995,381.580017 836.860005,384.759985 835.9,387.72 C834.939995,390.680015 834.100004,393.15999 833.38,395.16 Z M832.42,388.32 C834.42001,382.479971 836.059994,376.740028 837.34,371.1 C838.620006,365.459972 839.559997,360.400022 840.16,355.92 C840.760003,351.439978 840.960001,347.820014 840.76,345.06 C840.559999,342.299986 839.980005,340.88 839.02,340.8 C837.499992,340.239997 836.300004,340.759992 835.42,342.36 C834.539996,343.960008 833.840003,346.199986 833.32,349.08 C832.799997,351.960014 832.460001,355.259981 832.3,358.98 C832.139999,362.700019 832.08,366.399982 832.12,370.08 C832.16,373.760018 832.22,377.239984 832.3,380.52 C832.38,383.800016 832.42,386.39999 832.42,388.32 Z M851.86,386.04 C852.100001,385.96 852.779994,385.740002 853.9,385.38 C855.020006,385.019998 855.939996,384.959999 856.66,385.2 C858.980012,385.12 860.759994,385.719994 862,387 C863.240006,388.280006 863.340005,390.759982 862.3,394.44 C860.779992,398.52002 858.760013,401.919986 856.24,404.64 C853.719987,407.360014 850.740017,409.959988 847.3,412.44 C848.100004,414.52001 849.299992,415.679999 850.9,415.92 C852.500008,416.160001 854.179991,415.900004 855.94,415.14 C857.700009,414.379996 859.419992,413.360006 861.1,412.08 C862.780008,410.799994 864.139995,409.680005 865.18,408.72 C866.860008,407.279993 868.199995,406.060005 869.2,405.06 C870.200005,404.059995 871.259994,402.840007 872.38,401.4 C872.620001,401.239999 872.76,401.259999 872.8,401.46 C872.84,401.660001 872.82,401.959998 872.74,402.36 C872.66,402.760002 872.540001,403.319996 872.38,404.04 C872.139999,404.600003 871.900001,405.099998 871.66,405.54 C871.419999,405.980002 871.080002,406.459997 870.64,406.98 C870.199998,407.500003 869.620004,408.119996 868.9,408.84 C868.179996,409.560004 867.300005,410.519994 866.26,411.72 C865.059994,412.840006 863.900006,413.939995 862.78,415.02 C861.659994,416.100005 860.480006,417.039996 859.24,417.84 C857.999994,418.640004 856.640007,419.199998 855.16,419.52 C853.679993,419.840002 851.98001,419.840002 850.06,419.52 C848.459992,418.959997 847.180005,418.360003 846.22,417.72 C845.259995,417.079997 844.520003,416.420003 844,415.74 C843.479997,415.059997 843.100001,414.440003 842.86,413.88 C842.619999,413.319997 842.46,412.840002 842.38,412.44 C841.979998,410.839992 841.82,408.680014 841.9,405.96 C841.98,403.239986 842.779992,399.720022 844.3,395.4 C845.340005,393.159989 846.459994,391.260008 847.66,389.7 C848.860006,388.139992 850.259992,386.920004 851.86,386.04 Z M846.58,407.28 C847.620005,406.719997 848.839993,405.940005 850.24,404.94 C851.640007,403.939995 852.959994,402.780007 854.2,401.46 C855.440006,400.139993 856.519995,398.680008 857.44,397.08 C858.360005,395.479992 858.86,393.800009 858.94,392.04 C859.180001,390.839994 859.140002,390.000002 858.82,389.52 C858.659999,389.279999 858.500001,389.16 858.34,389.16 C856.979993,388.519997 855.620007,388.719995 854.26,389.76 C852.899993,390.800005 851.660006,392.27999 850.54,394.2 C849.419994,396.12001 848.480004,398.259988 847.72,400.62 C846.959996,402.980012 846.58,405.19999 846.58,407.28 Z M871.42,382.08 C871.34,381.359996 871.719996,381.179998 872.56,381.54 C873.400004,381.900002 874.259996,382.279998 875.14,382.68 C875.460002,384.520009 875.699999,385.979995 875.86,387.06 C876.020001,388.140005 876.14,389.159995 876.22,390.12 C876.3,391.080005 876.38,392.119994 876.46,393.24 C876.54,394.360006 876.659999,395.839991 876.82,397.68 C877.540004,395.839991 878.419995,394.140008 879.46,392.58 C880.500005,391.019992 881.839992,389.680006 883.48,388.56 C885.120008,387.439994 887.079989,386.620003 889.36,386.1 C891.640011,385.579997 894.379984,385.399999 897.58,385.56 C897.58,386.200003 897.360002,386.739998 896.92,387.18 C896.479998,387.620002 895.460008,387.959999 893.86,388.2 C891.539988,388.600002 889.520009,389.379994 887.8,390.54 C886.079991,391.700006 884.600006,393.039992 883.36,394.56 C882.119994,396.080008 881.120004,397.699991 880.36,399.42 C879.599996,401.140009 878.980002,402.719993 878.5,404.16 C878.42,404.880004 878.320001,405.899993 878.2,407.22 C878.079999,408.540007 878,409.939993 877.96,411.42 C877.92,412.900007 877.88,414.339993 877.84,415.74 C877.8,417.140007 877.859999,418.239996 878.02,419.04 C878.1,419.440002 877.920002,419.739999 877.48,419.94 C877.039998,420.140001 876.540003,420.28 875.98,420.36 C875.419997,420.44 874.900002,420.400001 874.42,420.24 C873.939998,420.079999 873.7,419.800002 873.7,419.4 C873.860001,411.159959 873.640003,404.06003 873.04,398.1 C872.439997,392.13997 871.900002,386.800024 871.42,382.08 Z" id="Familiehotel-Adler"></path>
        </g>
    </g>
</svg>