<?xml version="1.0" encoding="utf-8"?>
<!-- Generator: Adobe Illustrator 21.1.0, SVG Export Plug-In . SVG Version: 6.00 Build 0)  -->
<svg version="1.1" id="Layer_1" xmlns="http://www.w3.org/2000/svg" xmlns:xlink="http://www.w3.org/1999/xlink" x="0px" y="0px"
	 viewBox="0 0 1792 1792" style="enable-background:new 0 0 1792 1792;" xml:space="preserve">
<style type="text/css">
	.st0{fill:#FFFFFF;}
	.st1{fill:#0B86CA;}
	.st2{display:none;fill:#FFFF00;}
</style>
<g>
	<path class="st0" d="M575,420c-23.3-22.7-54.3-34-93-34c-38.7,0-70.2,11.3-94.5,34c-24.3,22.7-36.5,51.3-36.5,86
		c0,34,11.8,62.5,35.5,85.5c23.7,23,54.5,34.5,92.5,34.5h1c39.3,0,71-11.5,95-34.5s36-51.5,36-85.5C610.3,471.3,598.3,442.7,575,420
		z"/>
	<path class="st0" d="M1161,704c-89.4,0-158.4,37.9-207,113.8v3.2h-2c0.7-1.1,1.3-2.1,2-3.2V720H723c2,44,2,275.3,0,694h231v-388
		c0-25.3,2.3-44,7-56c10-23.3,25-43.2,45-59.5s44.7-24.5,74-24.5c77.3,0,116,52.3,116,157v371h231v-398c0-102.7-24.3-180.3-73-233
		C1305.3,730.3,1241,704,1161,704z"/>
	<rect x="365" y="720" class="st0" width="231" height="694"/>
	<path class="st1" d="M1579.5,212.5c-56.3-56.3-124.2-84.5-203.5-84.5H416c-79.3,0-147.2,28.2-203.5,84.5
		C156.2,268.8,128,336.7,128,416v960c0,79.3,28.2,147.2,84.5,203.5c56.3,56.3,124.2,84.5,203.5,84.5h960
		c79.3,0,147.2-28.2,203.5-84.5s84.5-124.2,84.5-203.5V416C1664,336.7,1635.8,268.8,1579.5,212.5z M596,1414H365V720h231V1414z
		 M575,591.5c-24,23-55.7,34.5-95,34.5h-1c-38,0-68.8-11.5-92.5-34.5C362.8,568.5,351,540,351,506c0-34.7,12.2-63.3,36.5-86
		c24.3-22.7,55.8-34,94.5-34c38.7,0,69.7,11.3,93,34c23.3,22.7,35.3,51.3,36,86C611,540,599,568.5,575,591.5z M1427,1414h-231v-371
		c0-104.7-38.7-157-116-157c-29.3,0-54,8.2-74,24.5s-35,36.2-45,59.5c-4.7,12-7,30.7-7,56v388H723c2-418.7,2-650,0-694h231v97.8
		c48.6-75.9,117.6-113.8,207-113.8c80,0,144.3,26.3,193,79c48.7,52.7,73,130.3,73,233V1414z"/>
	<path class="st2" d="M954,821v-3.2c-0.7,1-1.3,2.1-2,3.2H954z"/>
</g>
</svg>
